PathFileType	4	(X/Y/Z)	/Users/niels/Desktop/University/Third Semester/Perception and Action/Exam/Gymnastics Motion Tracking/Code for Gym Tracking/Analyzed Data/Webcam_Backflip/id6_2_pure_Sports2D/id6_2_pure_Sports2D_px_person00.trc
DataRate	CameraRate	NumFrames	NumMarkers	Units	OrigDataRate	OrigDataStartFrame	OrigNumFrames
29.81132075471698	29.81132075471698	11	22	m	29.81132075471698	19	159
Frame#	Time	Hip			RHip			RKnee			RAnkle			RBigToe			RSmallToe			RHeel			LHip			LKnee			LAnkle			LBigToe			LSmallToe			LHeel			Neck			Head			Nose			RShoulder			RElbow			RWrist			LShoulder			LElbow			LWrist		
		X1	Y1	Z1	X2	Y2	Z2	X3	Y3	Z3	X4	Y4	Z4	X5	Y5	Z5	X6	Y6	Z6	X7	Y7	Z7	X8	Y8	Z8	X9	Y9	Z9	X10	Y10	Z10	X11	Y11	Z11	X12	Y12	Z12	X13	Y13	Z13	X14	Y14	Z14	X15	Y15	Z15	X16	Y16	Z16	X17	Y17	Z17	X18	Y18	Z18	X19	Y19	Z19	X20	Y20	Z20	X21	Y21	Z21	X22	Y22	Z22
19	0.6373417721518987	0.9493156396982191	-0.5904843148632751	0.0	0.9502925023490314	-0.5900114831786181	0.0	0.9654099338335324	-0.6877172333693061	0.0	0.9534038401601316	-0.78620300259594	0.0	0.9820846839858423	-0.8042698609871929	0.0	0.9745000148636409	-0.8069025601724736	0.0	0.9460945722035939	-0.8011673434281019	0.0	0.9482408238467694	-0.5891531376211585	0.0	0.9632419389158761	-0.6869762587871043	0.0	0.951688712189666	-0.7814430296748363	0.0	0.9829789729779146	-0.8008699799184168	0.0	0.9780035330189621	-0.7976396439028234	0.0	0.9426275743432704	-0.7955233120701884	0.0	0.9921104751238585	-0.4638544076982321	0.0	1.01992477990619	-0.40026293900764254	0.0	1.0275436263318605	-0.4333279839705044	0.0	0.9918282949646426	-0.47604862431409295	0.0	0.9783673904819075	-0.5311736299432942	0.0	0.9651785726811709	-0.5848008324388903	0.0	0.9810644059040637	-0.47478062768583107	0.0	0.9694828849457736	-0.5281376707255293	0.0	0.960743205276439	-0.577118457868029	0.0
20	0.6708860759493671	0.9509724360181709	-0.5897278537410183	0.0	0.9514025123319076	-0.5895730540499713	0.0	0.9672230308058202	-0.6875443888981728	0.0	0.9536471150622688	-0.7851794093302003	0.0	0.9804978126019158	-0.8029035965795558	0.0	0.9731912308180968	-0.8057376283311164	0.0	0.9458058938233895	-0.7994726952068761	0.0	0.9489421792031913	-0.5882591915453188	0.0	0.9647373158230349	-0.6865530017983856	0.0	0.9519859052998205	-0.7800442971739178	0.0	0.9823879377856982	-0.7995552158469094	0.0	0.9770433316268171	-0.7958968757083464	0.0	0.9429606902690095	-0.7935184307961031	0.0	0.9915133871050682	-0.46273511779388715	0.0	1.0215991081496523	-0.3995196412609076	0.0	1.0279310671458204	-0.4326015751004267	0.0	0.9910992423748187	-0.4738509463660187	0.0	0.9648677995864313	-0.5210991503021797	0.0	0.9380399813539656	-0.5675488011150333	0.0	0.9801285304635843	-0.4726153911294901	0.0	0.9574181188735698	-0.517710647275034	0.0	0.935447594150422	-0.5617538271263497	0.0
21	0.7044303797468354	0.9517750076615085	-0.587931351904238	0.0	0.9514573402214568	-0.5881888996693126	0.0	0.9698042926136442	-0.6861740469817651	0.0	0.9539442682472424	-0.7828436046505798	0.0	0.9804652896505398	-0.800164055877855	0.0	0.9732634007497352	-0.8031769987565234	0.0	0.9453810846822615	-0.7963848106405812	0.0	0.9490465472955876	-0.5862816408516917	0.0	0.9668638718672528	-0.684893797760025	0.0	0.9524084756156226	-0.7776634467846962	0.0	0.9823992954765336	-0.7969733388276169	0.0	0.9768310550081261	-0.7930906143963875	0.0	0.9432551063437836	-0.7903714612009213	0.0	0.9905673380958183	-0.46098074793647736	0.0	1.023481905567946	-0.39806443166855393	0.0	1.0284437761824337	-0.43133973616392474	0.0	0.9900027272593617	-0.4707886249535307	0.0	0.9526900925224756	-0.508492392295912	0.0	0.914754297767037	-0.5456658536560792	0.0	0.979101198426339	-0.4696064160205632	0.0	0.9473440594902415	-0.505177945778686	0.0	0.9140603485610683	-0.5429581175658542	0.0
22	0.7379746835443037	0.9514877954844394	-0.585415203729339	0.0	0.9503856886603584	-0.5860554093011053	0.0	0.9732622184903481	-0.6834392891029971	0.0	0.9543442619458382	-0.7790909120147647	0.0	0.9822879600091471	-0.7961743608913128	0.0	0.9749499977228686	-0.7993298297317883	0.0	0.9450323668043067	-0.7920996559724116	0.0	0.9484874272345657	-0.5835349782300234	0.0	0.9697907006372187	-0.6819121988455925	0.0	0.9529760187968903	-0.7743138232840531	0.0	0.9833372337576879	-0.7931234348942375	0.0	0.9777084188182004	-0.7893983728899524	0.0	0.943542467414206	-0.7863100708217721	0.0	0.9893159534596981	-0.4588225087455272	0.0	1.0255921763774216	-0.3963397632691363	0.0	1.0291265786317514	-0.4298660774574016	0.0	0.9886359744193746	-0.46725981462571486	0.0	0.9421145735884412	-0.49499730227609157	0.0	0.8956676031217113	-0.521767180527122	0.0	0.9780087905479197	-0.4661083148480451	0.0	0.9390781625445906	-0.4922771626804412	0.0	0.8971212519770989	-0.5233879291665151	0.0
23	0.7715189873417722	0.9500521794548406	-0.582638106276731	0.0	0.9482775300341193	-0.5835231839481713	0.0	0.9774903008315493	-0.6793817427536756	0.0	0.9548445239014474	-0.7740284659276869	0.0	0.9854394125252719	-0.7911255705248099	0.0	0.9777951105489965	-0.7943782011533043	0.0	0.9449601304399674	-0.7868660774978169	0.0	0.9472982204096811	-0.5805074714447916	0.0	0.973563330195085	-0.6776644329904707	0.0	0.953694497830654	-0.7699706139035725	0.0	0.985300399784643	-0.7880901469344276	0.0	0.9796632245887762	-0.7849689245837561	0.0	0.9439099856685752	-0.7814829531363979	0.0	0.9879911636424155	-0.4566928581829674	0.0	1.027715303286859	-0.39490803640861977	0.0	1.0299552770696208	-0.4286220095642779	0.0	0.9872510256321841	-0.46388300161644413	0.0	0.9331535348984371	-0.48235374882624904	0.0	0.8803695499441108	-0.49862921753762984	0.0	0.9770611980515472	-0.46270529999866516	0.0	0.9325173557245676	-0.4807160559821094	0.0	0.8845512632260626	-0.5056666407117176	0.0
24	0.8050632911392405	0.9475870642323417	-0.5801035594385954	0.0	0.9452920270914188	-0.5810476786255273	0.0	0.9821614792626006	-0.674299383631977	0.0	0.9553853210804824	-0.7680005530763931	0.0	0.9889445656645528	-0.7852453932168478	0.0	0.9809956896058522	-0.7885410299869123	0.0	0.9452457976776868	-0.7809809904110315	0.0	0.9456208675762507	-0.5777597429498312	0.0	0.9780292420231864	-0.6724219435171188	0.0	0.9545757780114281	-0.7646882840514687	0.0	0.9880645435672498	-0.7820799493633759	0.0	0.9823168354767532	-0.7798896750058738	0.0	0.9444325474057194	-0.77603163804059	0.0	0.9869379840349627	-0.4552100743442629	0.0	1.0295754439917508	-0.39431706340435274	0.0	1.0308447853464842	-0.4280601367585855	0.0	0.9861530337013215	-0.4614598889617211	0.0	0.9257525702684505	-0.47227394848696896	0.0	0.8682614027291918	-0.4792495086281058	0.0	0.9765350679375459	-0.46018365399568045	0.0	0.9274514652041149	-0.4718979326178914	0.0	0.8755257174668881	-0.49189320521893415	0.0
25	0.8386075949367088	0.9443607094014027	-0.578389519684006	0.0	0.9416578796626826	-0.579237912881142	0.0	0.9868187050655459	-0.6688011496896541	0.0	0.9559023133420463	-0.7616400194980735	0.0	0.9919833107716084	-0.7789816838446899	0.0	0.9838670803100338	-0.7823010701738319	0.0	0.9458150418950052	-0.7749096482362143	0.0	0.9436749179606349	-0.5759057625071607	0.0	0.9828330739320161	-0.6667462689144011	0.0	0.9556003927063115	-0.758808595887151	0.0	0.9911356616919997	-0.7755871423050184	0.0	0.9851204109610523	-0.7744145841277803	0.0	0.9450718691540251	-0.7702797614613957	0.0	0.9864032867422938	-0.45513174858442124	0.0	1.0309380866107882	-0.39506916979211715	0.0	1.0316331771272111	-0.42861710590804925	0.0	0.9854878906284386	-0.46087570619507184	0.0	0.9200201026181526	-0.46643562700713975	0.0	0.859110513917752	-0.4667392508160311	0.0	0.9765549294376923	-0.45940845156745164	0.0	0.9234955041309342	-0.466907494933896	0.0	0.8688693221485375	-0.48345101256758294	0.0
26	0.8721518987341772	0.9407439418304513	-0.5781716083669782	0.0	0.9377254967857831	-0.5788653059983122	0.0	0.9910013267926902	-0.6638223740991123	0.0	0.956345413674703	-0.7558976283669384	0.0	0.9941022753343495	-0.7731728989094316	0.0	0.9859621673450113	-0.7765611533417835	0.0	0.9464727137062867	-0.7694030439668207	0.0	0.9416072063534418	-0.5756156192219856	0.0	0.9874746019456337	-0.6615539416309631	0.0	0.9566578453938108	-0.7531188517206406	0.0	0.9938481441148189	-0.7695141858780571	0.0	0.9875280332757792	-0.7692343173999785	0.0	0.9456671013229059	-0.7649076130189415	0.0	0.9863480884644515	-0.4571954808140632	0.0	1.0315451874942285	-0.39759458483291166	0.0	1.0320646052856006	-0.4307010682206905	0.0	0.985144164882501	-0.4629115483218856	0.0	0.9162243526190645	-0.46637543837413037	0.0	0.8531428331064381	-0.4638564600186244	0.0	0.9769654988081619	-0.46114233820297107	0.0	0.9203198500292362	-0.4667523659549031	0.0	0.8638016517966575	-0.48141887747470047	0.0
27	0.9056962025316455	0.9371429948232975	-0.580147922408592	0.0	0.9339390227662097	-0.5807377755480064	0.0	0.9943598212563324	-0.6605419988501492	0.0	0.956666225843449	-0.7519502107828594	0.0	0.995109307915948	-0.7690094325409269	0.0	0.9870046725869318	-0.772528015237988	0.0	0.9469683415384306	-0.7654884352056334	0.0	0.9393901745076614	-0.5775588401149266	0.0	0.9914269999609141	-0.6580593877582521	0.0	0.9575653871156837	-0.748827729031664	0.0	0.9955454055439668	-0.7651352109505413	0.0	0.9891053728773048	-0.765484470655093	0.0	0.9460028273697837	-0.7609654960215371	0.0	0.9864383747102644	-0.4618476323047384	0.0	1.0310297304914775	-0.40213410184697435	0.0	1.031800898019774	-0.43459294040361723	0.0	0.9848209729426253	-0.46805181744462027	0.0	0.914666032501894	-0.4732002185140882	0.0	0.8509230041842534	-0.4723316142409381	0.0	0.9774093484817542	-0.46587890249832825	0.0	0.918055518176222	-0.47248803878270623	0.0	0.8606585186727043	-0.48706736840531434	0.0
28	0.9392405063291138	0.933918477027238	-0.5848858594654733	0.0	0.9307225840001114	-0.5854903306598261	0.0	0.9967205734597913	-0.6601747279040097	0.0	0.9568310298401891	-0.7509885561565017	0.0	0.9949920997223138	-0.767781269496667	0.0	0.9869138337610066	-0.7714293876827055	0.0	0.9471038256423804	-0.7642935979506431	0.0	0.9369340628028439	-0.5822912386633181	0.0	0.9942922661021231	-0.6575411549773775	0.0	0.9581526364930216	-0.7473137190970128	0.0	0.995871643481983	-0.7638446008588103	0.0	0.9896339106671431	-0.7644617743562822	0.0	0.9459020330617505	-0.7596517094417711	0.0	0.9861998341434758	-0.46904031923097894	0.0	1.028905219324385	-0.40863999333246176	0.0	1.0304629430223011	-0.44033720131859566	0.0	0.9841264111724003	-0.47635349272496486	0.0	0.9157013900714919	-0.48720646578595966	0.0	0.8535156039899287	-0.49224052546384106	0.0	0.9774500516220228	-0.4737171612958187	0.0	0.9174688917868163	-0.48483653808537736	0.0	0.8611474344392472	-0.5016015427758308	0.0
29	0.9727848101265822	0.9313303978553391	-0.5926491433007287	0.0	0.9283729417392227	-0.5934061636694746	0.0	0.998071027012291	-0.6636954413193251	0.0	0.9568438761076186	-0.7539675335607917	0.0	0.9938982918185664	-0.7705227694048956	0.0	0.9858304712691061	-0.7742043296449757	0.0	0.9468600649486695	-0.7667518104996687	0.0	0.9343223600374259	-0.5901287004825175	0.0	0.9959092237778572	-0.661041977250031	0.0	0.9583398784846096	-0.749771057382963	0.0	0.994921009386899	-0.7667690286440507	0.0	0.989125538996374	-0.7672546741418153	0.0	0.945330382751178	-0.7619967077423766	0.0	0.9851665198422779	-0.4782419319463245	0.0	1.0246622115293702	-0.41679366567889325	0.0	1.0276938283758468	-0.4477400769164878	0.0	0.9826473001034205	-0.4873696518407907	0.0	0.919883159427408	-0.5075043535044872	0.0	0.8626804489365777	-0.5215983901816523	0.0	0.9766093407608641	-0.4842682071345073	0.0	0.9196757421649394	-0.5034233901956678	0.0	0.8679028732604227	-0.5249266052452408	0.0
